<svg enable-background="new 0 0 1920 1920" height="1920" viewBox="0 0 1920 1920" width="1920" xmlns="http://www.w3.org/2000/svg"><path d="m1677.8 1804.5h-1385.4c-53.9 0-97.7-43.7-97.7-97.6v-1439.2c0-53.9 43.7-97.6 97.7-97.6h1385.4c53.9 0 97.6 43.7 97.6 97.6v1439.2c0 53.8-43.7 97.6-97.6 97.6z" fill="#c3acf1"/><path d="m1677.8 1817.2h-1385.4c-60.9 0-110.4-49.5-110.4-110.4v-1439.1c0-60.9 49.5-110.4 110.4-110.4h1385.4c60.9 0 110.4 49.5 110.4 110.4v1439.2c-0 60.8-49.5 110.3-110.4 110.3zm-1385.4-1634.4c-46.8 0-84.9 38.1-84.9 84.9v1439.2c0 46.8 38.1 84.9 84.9 84.9h1385.4c46.8 0 84.9-38.1 84.9-84.9v-1439.2c0-46.8-38.1-84.9-84.9-84.9z" fill="#231f20"/><path d="m1360 1263.5 33.3 102.6h107.9l-87.3 63.4 33.3 102.6-87.3-63.4-87.2 63.4 33.3-102.6-87.3-63.4h107.9z" fill="#cae062"/><path d="m1447.3 1544.8c-2.6 0-5.3-.8-7.5-2.4l-79.8-57.9-79.7 57.9c-4.5 3.2-10.5 3.2-15 0-4.5-3.3-6.3-9-4.6-14.3l30.5-93.7-79.8-57.9c-4.5-3.3-6.3-9-4.6-14.3s6.6-8.8 12.1-8.8h98.6l30.5-93.8c1.7-5.3 6.6-8.8 12.1-8.8s10.4 3.6 12.1 8.8l30.5 93.8h98.6c5.5 0 10.4 3.6 12.1 8.8s-.2 11-4.6 14.3l-79.8 57.9 30.5 93.7c1.7 5.3-.2 11-4.6 14.3-2.3 1.6-5 2.4-7.6 2.4zm-87.3-88.9c2.6 0 5.3.8 7.5 2.4l55.5 40.3-21.2-65.2c-1.7-5.3.2-11 4.6-14.3l55.5-40.3h-68.6c-5.5 0-10.4-3.6-12.1-8.8l-21.2-65.2-21.2 65.2c-1.7 5.3-6.6 8.8-12.1 8.8h-68.6l55.5 40.3c4.5 3.3 6.3 9 4.6 14.3l-21.2 65.2 55.5-40.3c2.3-1.6 4.9-2.4 7.5-2.4z" fill="#231f20"/><path d="m964.2 1263.5 33.3 102.6h107.8l-87.3 63.4 33.3 102.6-87.3-63.4-87.2 63.4 33.3-102.6-87.3-63.4h107.9z" fill="#cae062"/><path d="m876.9 1544.8c-2.6 0-5.3-.8-7.5-2.4-4.5-3.3-6.3-9-4.6-14.3l30.5-93.7-79.8-57.9c-4.5-3.3-6.3-9-4.6-14.3s6.6-8.8 12.1-8.8h98.6l30.5-93.8c1.7-5.3 6.6-8.8 12.1-8.8s10.4 3.6 12.1 8.8l30.5 93.8h98.6c5.5 0 10.4 3.6 12.1 8.8s-.2 11-4.6 14.3l-79.8 57.9 30.5 93.7c1.7 5.3-.2 11-4.6 14.3-4.5 3.2-10.5 3.2-15 0l-79.8-57.9-79.7 57.9c-2.3 1.6-4.9 2.4-7.6 2.4zm-14.6-165.9 55.5 40.3c4.5 3.3 6.3 9 4.6 14.3l-21.2 65.2 55.5-40.3c4.5-3.2 10.5-3.2 15 0l55.5 40.3-21.2-65.2c-1.7-5.3.2-11 4.6-14.3l55.5-40.3h-68.5c-5.5 0-10.4-3.6-12.1-8.8l-21.2-65.2-21.2 65.2c-1.7 5.3-6.6 8.8-12.1 8.8z" fill="#231f20"/><path d="m568.4 1263.5 33.3 102.6h107.9l-87.3 63.4 33.3 102.6-87.2-63.4-87.3 63.4 33.3-102.6-87.3-63.4h107.9z" fill="#cae062"/><path d="m655.6 1544.8c-2.6 0-5.3-.8-7.5-2.4l-79.7-57.9-79.8 57.9c-4.5 3.2-10.5 3.2-15 0-4.5-3.3-6.3-9-4.6-14.3l30.5-93.7-79.8-57.9c-4.5-3.3-6.3-9-4.6-14.3s6.6-8.8 12.1-8.8h98.6l30.5-93.8c1.7-5.3 6.6-8.8 12.1-8.8 5.5 0 10.4 3.6 12.1 8.8l30.5 93.8h98.6c5.5 0 10.4 3.6 12.1 8.8 1.7 5.3-.2 11-4.6 14.3l-79.8 57.9 30.5 93.7c1.7 5.3-.2 11-4.6 14.3-2.3 1.6-5 2.4-7.6 2.4zm-87.2-88.9c2.6 0 5.3.8 7.5 2.4l55.5 40.3-21.2-65.2c-1.7-5.3.2-11 4.6-14.3l55.5-40.3h-68.6c-5.5 0-10.4-3.6-12.1-8.8l-21.2-65.2-21.2 65.2c-1.7 5.3-6.6 8.8-12.1 8.8h-68.5l55.5 40.3c4.5 3.3 6.3 9 4.6 14.3l-21.2 65.2 55.5-40.3c2.1-1.6 4.7-2.4 7.4-2.4z" fill="#231f20"/><path d="m1440.8 600.7c-124.9 47.6-268.3 7.4-346.2-102.3-108.8 128.5-275 238.8-420.3 320.9-75.5 42.3-186.3 82.9-222.1 162.3-21.7 48.2-13.8 120.6 42.9 122.5 299.8 10.1 635.5-1 935.4 1.4 23.8-3.8 36.9-13.3 46.6-36.2 2.3-3.8-7.8-120.8-7.8-129-10.6-102.5-18-237.3-28.5-339.6z" fill="#fff"/><path d="m796.6 1121.2c-102.7 0-204.4-1.1-301.9-4.3-22.9-.8-41.2-11.2-53-30.1-17.4-28-17.9-73.4-1.1-110.4 30.4-67.4 109.1-107.4 178.6-142.6 17.4-8.8 33.8-17.2 48.9-25.6 187.7-106 328-213 416.8-318 2.5-3 6.4-4.7 10.3-4.5s7.6 2.1 9.9 5.4c73.7 103.7 209.9 143.9 331.2 97.7 3.7-1.4 7.9-1 11.2 1.1 3.4 2.1 5.6 5.6 6 9.6 5.2 50.9 9.8 110.8 14.2 168.7 4.5 58.7 9.1 119.4 14.4 170.9 0 .5.1.9.1 1.4 0 2.6 1.3 19.5 2.5 35.8 6.7 88.1 6.5 94.3 3.9 98.9-11.3 26-27.5 38.4-56 42.9-.7.1-1.3.2-2.1.2-115.3-.9-238.5.2-357.7 1.3-91.4.8-184.3 1.6-276.2 1.6zm297.3-602.4c-91.1 103.3-230.1 208.1-413.3 311.6-15.6 8.7-32.2 17.2-49.8 26.1-65.7 33.4-140.2 71.2-166.9 130.4-13.2 29.3-13.4 65.7-.5 86.5 7.2 11.5 18 17.6 32.2 18 184.2 6.2 383.8 4.4 576.9 2.7 118.9-1.1 241.9-2.2 357.1-1.3 18.8-3.2 27.6-9.9 35.1-26.9.3-10.4-3.5-60.3-5.6-87.7-1.8-23.2-2.5-33.3-2.6-37.1-5.3-51.7-9.9-112.3-14.4-171-3.9-51.7-8-105-12.5-152-122.9 39.6-256.8 0-335.7-99.3z" fill="#231f20"/><path d="m1473.5 998.8c-320.9-1.4-656.7 11.3-977.1 6.3-22.6 0-37.3-16.2-44.2-23.5-21.7 48.2-13.8 120.6 42.9 122.5 299.8 10.1 635.5-1 935.4 1.4 23.8-3.8 36.8-13.3 46.6-36.2 1.3-2-1.1-37.3-3.6-70.5z" fill="#f5b7a6"/><path d="m796.6 1121.2c-102.7 0-204.4-1.1-301.9-4.3-22.9-.8-41.2-11.2-53-30.1-17.4-27.9-17.9-73.4-1.1-110.5 1.8-3.9 5.3-6.6 9.5-7.3s8.5.7 11.4 3.9l.4.5c6.2 6.7 17.9 19.1 34.4 19.1 178.6 2.8 364.8 0 544.8-2.6 142.7-2.1 290.2-4.3 432.3-3.7 6.7 0 12.2 5.2 12.7 11.8 5 67.7 4.7 73 2.3 77.3-11.3 26-27.5 38.4-56 42.9-.7.1-1.3.2-2.1.2-115.3-.9-238.6.2-357.8 1.3-91.1.7-184 1.5-275.9 1.5zm-338.9-117c-6.7 25.2-4.8 52.3 5.7 69.2 7.2 11.5 18 17.6 32.2 18 184.2 6.2 383.8 4.4 576.9 2.7 118.9-1.1 241.9-2.2 357.1-1.3 18.8-3.2 27.6-9.9 35.1-26.8.1-4.3-.4-17.8-3.1-54.3-138.2-.4-281.4 1.7-420 3.7-180.2 2.7-366.6 5.4-545.4 2.6-16.3-.1-29.1-6.7-38.5-13.8z" fill="#231f20"/><path d="m1317.3 802c0 47.6-38.6 86.1-86.1 86.1-47.6 0-86.1-38.6-86.1-86.1 0-47.6 38.6-86.1 86.1-86.1 47.5-.1 86.1 38.5 86.1 86.1z" fill="#f5b7a6"/><path d="m1231.2 900.9c-54.5 0-98.9-44.4-98.9-98.9s44.4-98.9 98.9-98.9 98.9 44.4 98.9 98.9-44.4 98.9-98.9 98.9zm0-172.3c-40.5 0-73.4 32.9-73.4 73.4s32.9 73.4 73.4 73.4 73.4-32.9 73.4-73.4c-.1-40.5-33-73.4-73.4-73.4z" fill="#231f20"/></svg>